<?xml version="1.0" standalone="no"?>
<!DOCTYPE svg PUBLIC "-//W3C//DTD SVG 20010904//EN"
 "http://www.w3.org/TR/2001/REC-SVG-20010904/DTD/svg10.dtd">
<svg version="1.0" xmlns="http://www.w3.org/2000/svg"
 width="500.000000pt" height="500.000000pt" viewBox="0 0 500.000000 500.000000"
 preserveAspectRatio="xMidYMid meet">

<g transform="translate(0.000000,500.000000) scale(0.100000,-0.100000)"
fill="#000000" stroke="none">
<path d="M2770 2645 l0 -285 55 0 55 0 0 285 0 285 -55 0 -55 0 0 -285z"/>
<path d="M412 2893 c-13 -25 -202 -519 -202 -527 0 -4 28 -6 61 -4 l62 3 17
55 17 55 105 3 105 3 18 -61 18 -60 64 0 c34 0 63 2 63 5 0 6 -37 105 -58 155
-11 27 -73 189 -118 312 l-29 78 -57 0 c-45 0 -59 -4 -66 -17z m97 -219 c17
-50 31 -94 31 -98 0 -3 -32 -6 -71 -6 -64 0 -70 2 -64 18 7 17 52 144 61 171
6 20 8 16 43 -85z"/>
<path d="M2017 2896 c-92 -34 -135 -105 -115 -186 14 -53 59 -90 145 -119 94
-32 113 -45 113 -81 0 -62 -84 -79 -173 -34 l-51 25 -18 -23 c-41 -51 -41 -56
-1 -82 105 -69 272 -51 334 35 29 41 36 116 15 156 -19 37 -59 63 -146 94 -77
26 -100 44 -100 75 0 53 88 71 162 33 l40 -21 28 34 c15 18 26 38 23 44 -2 6
-22 21 -45 34 -51 29 -156 37 -211 16z"/>
<path d="M3380 2636 l0 -276 142 0 c165 0 226 15 290 69 59 51 78 99 78 201 0
127 -43 205 -137 251 -42 20 -67 23 -210 27 l-163 4 0 -276z m300 146 c54 -27
80 -74 80 -146 0 -114 -56 -166 -177 -166 l-73 0 0 165 0 165 68 0 c44 0 79
-6 102 -18z"/>
<path d="M3960 2635 l0 -275 65 0 65 0 0 185 0 186 83 -123 c46 -68 96 -141
111 -163 59 -90 53 -85 127 -85 l69 0 0 275 0 275 -65 0 -65 0 -2 -186 -3
-186 -91 144 c-51 78 -103 162 -118 186 l-26 42 -75 0 -75 0 0 -275z"/>
<path d="M1210 2810 c0 -47 -2 -50 -25 -50 -23 0 -25 -4 -25 -45 0 -41 2 -45
25 -45 l25 0 0 -110 c0 -119 13 -170 48 -189 12 -6 50 -11 86 -11 l66 0 0 29
c0 46 -10 61 -39 61 -44 0 -51 16 -51 122 l0 98 45 0 45 0 0 45 0 45 -45 0
-45 0 0 50 0 50 -55 0 -55 0 0 -50z"/>
<path d="M761 2596 c4 -148 6 -167 25 -193 41 -55 142 -66 199 -21 l25 19 0
-20 c0 -19 6 -21 55 -21 l55 0 0 200 0 200 -55 0 -55 0 0 -133 c0 -120 -2
-135 -20 -155 -12 -12 -33 -22 -48 -22 -60 0 -72 30 -72 184 l0 126 -56 0 -56
0 3 -164z"/>
<path d="M1519 2732 c-24 -16 -52 -41 -62 -56 -44 -66 -36 -188 14 -250 44
-53 82 -69 164 -70 147 0 227 87 212 233 -12 111 -86 171 -213 171 -60 0 -77
-4 -115 -28z m184 -88 c48 -47 47 -136 0 -174 -38 -30 -103 -27 -134 6 -20 21
-24 36 -24 86 0 55 3 62 30 84 41 33 94 32 128 -2z"/>
<path d="M2382 2740 l-42 -19 17 -36 c17 -36 31 -43 50 -24 6 6 37 13 69 16
66 5 89 -6 99 -48 6 -26 6 -26 -67 -32 -130 -9 -181 -46 -180 -129 1 -51 27
-89 73 -105 44 -16 116 -7 152 18 27 20 27 20 27 -1 0 -18 6 -20 58 -20 l57 0
-5 157 c-6 173 -14 199 -71 229 -43 22 -183 18 -237 -6z m195 -242 c-9 -69
-64 -98 -115 -62 -26 18 -29 55 -4 76 20 18 43 25 91 27 l34 1 -6 -42z"/>
<path d="M3035 2743 c-71 -37 -105 -96 -105 -183 0 -106 57 -179 158 -200 64
-14 145 0 186 34 l29 23 -19 31 c-21 36 -22 37 -49 18 -52 -36 -127 -31 -169
11 -49 49 -40 53 115 53 l142 0 -6 55 c-7 67 -37 123 -82 153 -43 27 -152 31
-200 5z m154 -84 c10 -11 21 -29 24 -40 5 -18 -1 -19 -84 -19 -49 0 -89 4 -89
9 0 5 12 23 26 40 32 39 92 43 123 10z"/>
<path d="M4594 2487 c-33 -29 -37 -79 -8 -107 31 -30 84 -30 114 0 30 30 27
83 -6 109 -35 27 -66 26 -100 -2z"/>
</g>
</svg>
